<svg width="3941" height="3943" fill="none" xmlns="http://www.w3.org/2000/svg"><path d="M3770.4 1500.8l-3535.1 1035A917.7 917.7 0 0 1 42 1971.4C42 1462 456 1048 965.4 1048h2010.2c337.1-.8 633 182 794.8 452.8" fill="#C8232A"/><path d="M965.4 2894.8h2010.2c509.4 0 923.3-414 923.3-923.4a915.3 915.3 0 0 0-129.3-470.6l-3535.1 1035c169.8 218.3 434.2 359 731 359z" fill="#fff"/><path d="M965.4 1006C433.4 1006 0 1438.6 0 1971.4c0 532 432.6 965.4 965.4 965.4h2010.2c532 0 965.4-433.4 965.4-965.4 0-532.8-433.4-965.4-965.4-965.4H965.4zM41.2 1971.4C41.2 1462 456 1048 964.6 1048h2011c509.4 0 923.3 414.8 923.3 923.4 0 509.4-414 923.4-923.3 923.4H965.4c-509.4 0-924.2-414-924.2-923.4z" fill="#161515"/><path d="M3322.4 2497.8l-121.3-255.5c-24.2-50.2-66.3-77.7-118-77.7h-280.6c-10.5 0-14.5-8-11.3-16.1l38.8-83.3 97.9-207.8c12.9-27.5 17.7-52.6 17.7-75.2 0-38.8-13.7-69.5-20.2-84-1.6-2.5-169-339.7-169-339.7a168.2 168.2 0 0 0-150.4-95.4H1365c-45.3 0-86.5 23.5-112.4 64.7L675.2 2503.4c-28.3 55.8-11.4 97.9.8 118 25 41.3 69.5 55.9 102.7 55.9h326.6c89 0 123-62.3 140-95.4 44.4-78.5 50-89 54.9-96.3 3.2-5.6 10.5-7.2 24.3-7.2h418.8c13.7 0 20.2 1.6 24.3 7.3 4.8 7.2 10.5 17.7 55 96.2 17.7 33.1 50.9 95.4 139.8 95.4h1245.2c42.9-.8 80-21.9 102.7-58.2a121.3 121.3 0 0 0 12.1-121.3zm-1854.8-363c13.7-34 45.3-110 66.3-161.8 21 51.8 51.7 127.8 66.3 161.7h-132.6zm867.6-334.8c-2.5 5.7-86.5 177.9-139.1 287-42-88.1-110.8-232.8-144-303.2h275c14.5-.8 10.5 9.7 8 16.2z" fill="#161515"/><path d="M3265.8 2523.6L3145.4 2269c-14.6-29-34-42-62.3-42l-313.7-.8c-17 0-35.6-13-42-26.7-11.4-22.6-6.5-48.5 9.6-81.7a32005 32005 0 0 0 135-285.4c22.7-51 5-90.5-3.2-110-9.7-21.8-161.7-323.3-168.2-336.3a105.4 105.4 0 0 0-93.8-59h-1242c-23.4 0-45.2 13-59 34.8l-574 1170.7c-13.8 27.5-8.1 46.1-1.7 57.4 11.4 19.4 34 26 50.2 26l326.6.7c44.5 0 62.3-19.4 86.6-63.9l57.4-98.6c13.7-21.8 42-34.8 75.2-34.8h418.8c33.2 0 61.5 13 75.2 34.8l57.4 98.6c24.3 44.5 42 64 86.5 64h1245.2c21 0 39.7-11.4 51-29.2a69.4 69.4 0 0 0 5.6-63.9zm-1237 51H1964c-19.4 0-27.5 0-50.1-42l-59-101.1c-21-34-63-55-110.8-55h-418c-47.7 0-89 20.2-110.8 55l-59 101c-22.7 42-30.8 42-50.2 42H780.3c-5.7 0-13-2.3-14.6-6.4-.8-.8-.8-2.4-.8-3.2 0-3.3 1.6-8.1 4-13a549443 549443 0 0 0 573.3-1169.1 26.1 26.1 0 0 1 22.7-13.8h397.8l409.1 862.8-110 226.3c-16.1 34-12.9 78.5 9.8 113.2.8 1.7 2.4 2.5 3.2 4l-46-.7zm-43-832.8h357.5a37 37 0 0 1 33.1 17c8.9 13.7 8.9 32.3 0 50.9l-181.1 373.5-209.4-441.4zm1239.6 823c-4 6.5-9.7 9.8-16.2 9.8H2146.8c-21 0-34-17.8-38.8-25.9-14.6-22.6-17-52.5-7.3-73.6l118-243.3h.8v-.9l195.7-403.4c14.6-31.5 13.8-65.5-2.4-90.6a79.8 79.8 0 0 0-68-36.4h-376.7L1810.4 1369h798a62 62 0 0 1 56.7 36.4c54.1 108.4 159.3 317.8 167.3 334.8 9.8 21 17.8 44.4 3.3 76a23237 23237 0 0 1-134.3 283.8c-23.4 46-29 88-8 122 15.3 25.1 43.6 46.1 77.6 46.1l313.7.8c9.7 0 16.2.8 24.3 18.6l120.4 254c.9 5.6.9 15.3-4 23.4zm-1648.7-717.1a47.4 47.4 0 0 0-43.6-30 47.4 47.4 0 0 0-43.7 30l-121.3 307.2a50.6 50.6 0 0 0 4 44.5 47.7 47.7 0 0 0 38.9 21h242.5c16.2 0 30.8-8 38.8-21 8.1-13 9.8-29.1 4-43.7l-119.6-308zm81.7 329a4.4 4.4 0 0 1-4 2.5h-242.6c-1.6 0-3.3-.8-4-2.4-.9-1.7-1.7-4-.9-6.5l121.3-307.3c.8-2.4 2.4-3.2 4.9-3.2 1.6 0 4 1.6 4.8 3.3l121.3 307.2c.8 2.4.8 4.8-.8 6.5z" fill="#fff"/></svg>