<svg id="Layer_1" data-name="Layer 1" xmlns="http://www.w3.org/2000/svg" viewBox="0 0 1396.96 1790"><defs><style>.cls-1{fill:#01ba5c;}.cls-2{fill:#00ae55;}.cls-3{opacity:0.1;isolation:isolate;}.cls-4{fill:#cecece;}.cls-5{fill:#fff;}</style></defs><rect class="cls-1" width="1396.96" height="179"/><rect class="cls-2" y="179" width="1396.96" height="179"/><rect class="cls-1" y="358" width="1396.96" height="179"/><rect class="cls-2" y="537" width="1396.96" height="179"/><rect class="cls-1" y="716" width="1396.96" height="179"/><rect class="cls-2" y="895" width="1396.96" height="179"/><rect class="cls-1" y="1074" width="1396.96" height="179"/><rect class="cls-2" y="1253" width="1396.96" height="179"/><rect class="cls-1" y="1432" width="1396.96" height="179"/><rect class="cls-2" y="1611" width="1396.96" height="179"/><polygon class="cls-3" points="496.41 105.12 529.43 168.63 876.14 168.63 909.16 105.12 496.41 105.12"/><path class="cls-4" d="M541,46.54l8,4.54v9.06l-8,4.53-7.94-4.53V51.08L541,46.54m0-1.11-8.82,5.09V60.7L541,65.78l8.83-5.08V50.52L541,45.43Z"/><path class="cls-4" d="M557.81,46.54l7.94,4.54v9.06l-7.94,4.53-7.94-4.53V51.08l7.94-4.54m0-1.11L549,50.52V60.7l8.82,5.08,8.82-5.08V50.52l-8.82-5.09Z"/><path class="cls-4" d="M574.57,46.54l7.95,4.54v9.06l-7.95,4.53-7.94-4.53V51.08l7.94-4.54m0-1.11-8.82,5.09V60.7l8.82,5.08,8.83-5.08V50.52l-8.83-5.09Z"/><path class="cls-4" d="M591.34,46.54l7.94,4.54v9.06l-7.94,4.53-7.94-4.53V51.08l7.94-4.54m0-1.11-8.82,5.09V60.7l8.82,5.08,8.82-5.08V50.52l-8.82-5.09Z"/><path class="cls-4" d="M608.1,46.54l7.95,4.54v9.06l-7.95,4.53-7.94-4.53V51.08l7.94-4.54m0-1.11-8.82,5.09V60.7l8.82,5.08,8.83-5.08V50.52l-8.83-5.09Z"/><path class="cls-4" d="M624.87,46.54l7.94,4.54v9.06l-7.94,4.53-7.94-4.53V51.08l7.94-4.54m0-1.11-8.82,5.09V60.7l8.82,5.08,8.82-5.08V50.52l-8.82-5.09Z"/><path class="cls-4" d="M641.63,46.54l8,4.54v9.06l-8,4.53-7.94-4.53V51.08l7.94-4.54m0-1.11-8.82,5.09V60.7l8.82,5.08,8.83-5.08V50.52l-8.83-5.09Z"/><path class="cls-4" d="M658.4,46.54l7.94,4.54v9.06l-7.94,4.53-7.94-4.53V51.08l7.94-4.54m0-1.11-8.82,5.09V60.7l8.82,5.08,8.82-5.08V50.52l-8.82-5.09Z"/><path class="cls-4" d="M675.17,46.54l7.94,4.54v9.06l-7.94,4.53-7.95-4.53V51.08l7.95-4.54m0-1.11-8.83,5.09V60.7l8.83,5.08L684,60.7V50.52l-8.82-5.09Z"/><path class="cls-4" d="M691.93,46.54l7.94,4.54v9.06l-7.94,4.53L684,60.14V51.08l7.94-4.54m0-1.11-8.82,5.09V60.7l8.82,5.08,8.82-5.08V50.52l-8.82-5.09Z"/><path class="cls-4" d="M708.7,46.54l7.94,4.54v9.06l-7.94,4.53-8-4.53V51.08l8-4.54m0-1.11-8.83,5.09V60.7l8.83,5.08,8.82-5.08V50.52l-8.82-5.09Z"/><path class="cls-4" d="M725.46,46.54l7.94,4.54v9.06l-7.94,4.53-7.94-4.53V51.08l7.94-4.54m0-1.11-8.82,5.09V60.7l8.82,5.08,8.82-5.08V50.52l-8.82-5.09Z"/><path class="cls-4" d="M742.23,46.54l7.94,4.54v9.06l-7.94,4.53-8-4.53V51.08l8-4.54m0-1.11-8.83,5.09V60.7l8.83,5.08,8.82-5.08V50.52l-8.82-5.09Z"/><path class="cls-4" d="M759,46.54l7.94,4.54v9.06L759,64.67l-7.94-4.53V51.08L759,46.54m0-1.11-8.82,5.09V60.7L759,65.78l8.82-5.08V50.52L759,45.43Z"/><path class="cls-4" d="M775.76,46.54l7.94,4.54v9.06l-7.94,4.53-8-4.53V51.08l8-4.54m0-1.11-8.83,5.09V60.7l8.83,5.08,8.82-5.08V50.52l-8.82-5.09Z"/><path class="cls-4" d="M792.52,46.54l7.94,4.54v9.06l-7.94,4.53-7.94-4.53V51.08l7.94-4.54m0-1.11-8.82,5.09V60.7l8.82,5.08,8.83-5.08V50.52l-8.83-5.09Z"/><path class="cls-4" d="M809.29,46.54l7.94,4.54v9.06l-7.94,4.53-7.94-4.53V51.08l7.94-4.54m0-1.11-8.83,5.09V60.7l8.83,5.08,8.82-5.08V50.52l-8.82-5.09Z"/><path class="cls-4" d="M826.05,46.54,834,51.08v9.06l-7.94,4.53-7.94-4.53V51.08l7.94-4.54m0-1.11-8.82,5.09V60.7l8.82,5.08,8.83-5.08V50.52l-8.83-5.09Z"/><path class="cls-4" d="M842.82,46.54l7.94,4.54v9.06l-7.94,4.53-7.94-4.53V51.08l7.94-4.54m0-1.11L834,50.52V60.7l8.83,5.08,8.82-5.08V50.52l-8.82-5.09Z"/><path class="cls-4" d="M859.58,46.54l7.94,4.54v9.06l-7.94,4.53-7.94-4.53V51.08l7.94-4.54m0-1.11-8.82,5.09V60.7l8.82,5.08,8.83-5.08V50.52l-8.83-5.09Z"/><path class="cls-4" d="M549.43,61.34l7.94,4.53v9.07l-7.94,4.53-7.95-4.53V65.87l7.95-4.53m0-1-8.83,5.09V75.59l8.83,5.08,8.82-5.08V65.41l-8.82-5.09Z"/><path class="cls-4" d="M566.19,61.34l7.94,4.53v9.07l-7.94,4.53-7.94-4.53V65.87l7.94-4.53m0-1-8.82,5.09V75.59l8.82,5.08L575,75.59V65.41l-8.83-5.09Z"/><path class="cls-4" d="M583,61.34l7.94,4.53v9.07L583,79.47,575,74.94V65.87L583,61.34m0-1-8.83,5.09V75.59L583,80.67l8.82-5.08V65.41L583,60.32Z"/><path class="cls-4" d="M599.72,61.34l7.94,4.53v9.07l-7.94,4.53-7.94-4.53V65.87l7.94-4.53m0-1-8.82,5.09V75.59l8.82,5.08,8.83-5.08V65.41l-8.83-5.09Z"/><path class="cls-4" d="M616.49,61.34l7.94,4.53v9.07l-7.94,4.53-7.94-4.53V65.87l7.94-4.53m0-1-8.83,5.09V75.59l8.83,5.08,8.82-5.08V65.41l-8.82-5.09Z"/><path class="cls-4" d="M633.25,61.34l7.94,4.53v9.07l-7.94,4.53-7.94-4.53V65.87l7.94-4.53m0-1-8.82,5.09V75.59l8.82,5.08,8.83-5.08V65.41l-8.83-5.09Z"/><path class="cls-4" d="M650,61.34,658,65.87v9.07L650,79.47l-7.94-4.53V65.87L650,61.34m0-1-8.83,5.09V75.59L650,80.67l8.82-5.08V65.41L650,60.32Z"/><path class="cls-4" d="M666.78,61.34l7.94,4.53v9.07l-7.94,4.53-7.94-4.53V65.87l7.94-4.53m0-1L658,65.41V75.59l8.82,5.08,8.83-5.08V65.41l-8.83-5.09Z"/><path class="cls-4" d="M683.55,61.34l7.94,4.53v9.07l-7.94,4.53-7.94-4.53V65.87l7.94-4.53m0-1-8.83,5.09V75.59l8.83,5.08,8.82-5.08V65.41l-8.82-5.09Z"/><path class="cls-4" d="M700.31,61.34l7.94,4.53v9.07l-7.94,4.53-7.94-4.53V65.87l7.94-4.53m0-1-8.82,5.09V75.59l8.82,5.08,8.83-5.08V65.41l-8.83-5.09Z"/><path class="cls-4" d="M717.08,61.34,725,65.87v9.07l-7.94,4.53-7.94-4.53V65.87l7.94-4.53m0-1-8.83,5.09V75.59l8.83,5.08,8.82-5.08V65.41l-8.82-5.09Z"/><path class="cls-4" d="M733.84,61.34l7.94,4.53v9.07l-7.94,4.53-7.94-4.53V65.87l7.94-4.53m0-1L725,65.41V75.59l8.82,5.08,8.83-5.08V65.41l-8.83-5.09Z"/><path class="cls-4" d="M750.61,61.34l7.94,4.53v9.07l-7.94,4.53-7.94-4.53V65.87l7.94-4.53m0-1-8.83,5.09V75.59l8.83,5.08,8.82-5.08V65.41l-8.82-5.09Z"/><path class="cls-4" d="M767.37,61.34l8,4.53v9.07l-8,4.53-7.94-4.53V65.87l7.94-4.53m0-1-8.82,5.09V75.59l8.82,5.08,8.83-5.08V65.41l-8.83-5.09Z"/><path class="cls-4" d="M784.14,61.34l7.94,4.53v9.07l-7.94,4.53-7.94-4.53V65.87l7.94-4.53m0-1-8.82,5.09V75.59l8.82,5.08L793,75.59V65.41l-8.82-5.09Z"/><path class="cls-4" d="M800.9,61.34l8,4.53v9.07l-8,4.53L793,74.94V65.87l7.94-4.53m0-1-8.82,5.09V75.59l8.82,5.08,8.83-5.08V65.41l-8.83-5.09Z"/><path class="cls-4" d="M817.67,61.34l7.94,4.53v9.07l-7.94,4.53-7.94-4.53V65.87l7.94-4.53m0-1-8.82,5.09V75.59l8.82,5.08,8.82-5.08V65.41l-8.82-5.09Z"/><path class="cls-4" d="M834.43,61.34l8,4.53v9.07l-8,4.53-7.94-4.53V65.87l7.94-4.53m0-1-8.82,5.09V75.59l8.82,5.08,8.83-5.08V65.41l-8.83-5.09Z"/><path class="cls-4" d="M851.2,61.34l7.94,4.53v9.07l-7.94,4.53-7.94-4.53V65.87l7.94-4.53m0-1-8.82,5.09V75.59l8.82,5.08L860,75.59V65.41l-8.82-5.09Z"/><path class="cls-4" d="M868,61.34l7.95,4.53v9.07L868,79.47,860,74.94V65.87L868,61.34m0-1-8.82,5.09V75.59L868,80.67l8.83-5.08V65.41L868,60.32Z"/><path class="cls-4" d="M541,76.33l8,4.53v9.06l-8,4.53-7.94-4.53V80.86L541,76.33m0-1-8.82,5.08V90.57L541,95.65l8.83-5.08V80.39L541,75.31Z"/><path class="cls-4" d="M557.81,76.33l7.94,4.53v9.06l-7.94,4.53-7.94-4.53V80.86l7.94-4.53m0-1L549,80.39V90.57l8.82,5.08,8.82-5.08V80.39l-8.82-5.08Z"/><path class="cls-4" d="M574.57,76.33l7.95,4.53v9.06l-7.95,4.53-7.94-4.53V80.86l7.94-4.53m0-1-8.82,5.08V90.57l8.82,5.08,8.83-5.08V80.39l-8.83-5.08Z"/><path class="cls-4" d="M591.34,76.33l7.94,4.53v9.06l-7.94,4.53-7.94-4.53V80.86l7.94-4.53m0-1-8.82,5.08V90.57l8.82,5.08,8.82-5.08V80.39l-8.82-5.08Z"/><path class="cls-4" d="M608.1,76.33l7.95,4.53v9.06l-7.95,4.53-7.94-4.53V80.86l7.94-4.53m0-1-8.82,5.08V90.57l8.82,5.08,8.83-5.08V80.39l-8.83-5.08Z"/><path class="cls-4" d="M624.87,76.33l7.94,4.53v9.06l-7.94,4.53-7.94-4.53V80.86l7.94-4.53m0-1-8.82,5.08V90.57l8.82,5.08,8.82-5.08V80.39l-8.82-5.08Z"/><path class="cls-4" d="M641.63,76.33l8,4.53v9.06l-8,4.53-7.94-4.53V80.86l7.94-4.53m0-1-8.82,5.08V90.57l8.82,5.08,8.83-5.08V80.39l-8.83-5.08Z"/><path class="cls-4" d="M658.4,76.33l7.94,4.53v9.06l-7.94,4.53-7.94-4.53V80.86l7.94-4.53m0-1-8.82,5.08V90.57l8.82,5.08,8.82-5.08V80.39l-8.82-5.08Z"/><path class="cls-4" d="M675.17,76.33l7.94,4.53v9.06l-7.94,4.53-7.95-4.53V80.86l7.95-4.53m0-1-8.83,5.08V90.57l8.83,5.08L684,90.57V80.39l-8.82-5.08Z"/><path class="cls-4" d="M691.93,76.33l7.94,4.53v9.06l-7.94,4.53L684,89.92V80.86l7.94-4.53m0-1-8.82,5.08V90.57l8.82,5.08,8.82-5.08V80.39l-8.82-5.08Z"/><path class="cls-4" d="M708.7,76.33l7.94,4.53v9.06l-7.94,4.53-8-4.53V80.86l8-4.53m0-1-8.83,5.08V90.57l8.83,5.08,8.82-5.08V80.39l-8.82-5.08Z"/><path class="cls-4" d="M725.46,76.33l7.94,4.53v9.06l-7.94,4.53-7.94-4.53V80.86l7.94-4.53m0-1-8.82,5.08V90.57l8.82,5.08,8.82-5.08V80.39l-8.82-5.08Z"/><path class="cls-4" d="M742.23,76.33l7.94,4.53v9.06l-7.94,4.53-8-4.53V80.86l8-4.53m0-1-8.83,5.08V90.57l8.83,5.08,8.82-5.08V80.39l-8.82-5.08Z"/><path class="cls-4" d="M759,76.33l7.94,4.53v9.06L759,94.45l-7.94-4.53V80.86L759,76.33m0-1-8.82,5.08V90.57L759,95.65l8.82-5.08V80.39L759,75.31Z"/><path class="cls-4" d="M775.76,76.33l7.94,4.53v9.06l-7.94,4.53-8-4.53V80.86l8-4.53m0-1-8.83,5.08V90.57l8.83,5.08,8.82-5.08V80.39l-8.82-5.08Z"/><path class="cls-4" d="M792.52,76.33l7.94,4.53v9.06l-7.94,4.53-7.94-4.53V80.86l7.94-4.53m0-1-8.82,5.08V90.57l8.82,5.08,8.83-5.08V80.39l-8.83-5.08Z"/><path class="cls-4" d="M809.29,76.33l7.94,4.53v9.06l-7.94,4.53-7.94-4.53V80.86l7.94-4.53m0-1-8.83,5.08V90.57l8.83,5.08,8.82-5.08V80.39l-8.82-5.08Z"/><path class="cls-4" d="M826.05,76.33,834,80.86v9.06l-7.94,4.53-7.94-4.53V80.86l7.94-4.53m0-1-8.82,5.08V90.57l8.82,5.08,8.83-5.08V80.39l-8.83-5.08Z"/><path class="cls-4" d="M842.82,76.33l7.94,4.53v9.06l-7.94,4.53-7.94-4.53V80.86l7.94-4.53m0-1L834,80.39V90.57l8.83,5.08,8.82-5.08V80.39l-8.82-5.08Z"/><path class="cls-4" d="M859.58,76.33l7.94,4.53v9.06l-7.94,4.53-7.94-4.53V80.86l7.94-4.53m0-1-8.82,5.08V90.57l8.82,5.08,8.83-5.08V80.39l-8.83-5.08Z"/><path class="cls-4" d="M549.43,91.22l7.94,4.53v9.06l-7.94,4.53-7.95-4.53V95.75l7.95-4.53m0-1.11-8.83,5.08v10.18l8.83,5.08,8.82-5.08V95.19l-8.82-5.08Z"/><path class="cls-4" d="M566.19,91.22l7.94,4.53v9.06l-7.94,4.53-7.94-4.53V95.75l7.94-4.53m0-1.11-8.82,5.08v10.18l8.82,5.08,8.83-5.08V95.19l-8.83-5.08Z"/><path class="cls-4" d="M583,91.22l7.94,4.53v9.06L583,109.34,575,104.81V95.75L583,91.22m0-1.11-8.83,5.08v10.18l8.83,5.08,8.82-5.08V95.19L583,90.11Z"/><path class="cls-4" d="M599.72,91.22l7.94,4.53v9.06l-7.94,4.53-7.94-4.53V95.75l7.94-4.53m0-1.11-8.82,5.08v10.18l8.82,5.08,8.83-5.08V95.19l-8.83-5.08Z"/><path class="cls-4" d="M616.49,91.22l7.94,4.53v9.06l-7.94,4.53-7.94-4.53V95.75l7.94-4.53m0-1.11-8.83,5.08v10.18l8.83,5.08,8.82-5.08V95.19l-8.82-5.08Z"/><path class="cls-4" d="M633.25,91.22l7.94,4.53v9.06l-7.94,4.53-7.94-4.53V95.75l7.94-4.53m0-1.11-8.82,5.08v10.18l8.82,5.08,8.83-5.08V95.19l-8.83-5.08Z"/><path class="cls-4" d="M650,91.22,658,95.75v9.06L650,109.34l-7.94-4.53V95.75L650,91.22m0-1.11-8.83,5.08v10.18l8.83,5.08,8.82-5.08V95.19L650,90.11Z"/><path class="cls-4" d="M666.78,91.22l7.94,4.53v9.06l-7.94,4.53-7.94-4.53V95.75l7.94-4.53m0-1.11L658,95.19v10.18l8.82,5.08,8.83-5.08V95.19l-8.83-5.08Z"/><path class="cls-4" d="M683.55,91.22l7.94,4.53v9.06l-7.94,4.53-7.94-4.53V95.75l7.94-4.53m0-1.11-8.83,5.08v10.18l8.83,5.08,8.82-5.08V95.19l-8.82-5.08Z"/><path class="cls-4" d="M700.31,91.22l7.94,4.53v9.06l-7.94,4.53-7.94-4.53V95.75l7.94-4.53m0-1.11-8.82,5.08v10.18l8.82,5.08,8.83-5.08V95.19l-8.83-5.08Z"/><path class="cls-4" d="M717.08,91.22,725,95.75v9.06l-7.94,4.53-7.94-4.53V95.75l7.94-4.53m0-1.11-8.83,5.08v10.18l8.83,5.08,8.82-5.08V95.19l-8.82-5.08Z"/><path class="cls-4" d="M733.84,91.22l7.94,4.53v9.06l-7.94,4.53-7.94-4.53V95.75l7.94-4.53m0-1.11L725,95.19v10.18l8.82,5.08,8.83-5.08V95.19l-8.83-5.08Z"/><path class="cls-4" d="M750.61,91.22l7.94,4.53v9.06l-7.94,4.53-7.94-4.53V95.75l7.94-4.53m0-1.11-8.83,5.08v10.18l8.83,5.08,8.82-5.08V95.19l-8.82-5.08Z"/><path class="cls-4" d="M767.37,91.22l8,4.53v9.06l-8,4.53-7.94-4.53V95.75l7.94-4.53m0-1.11-8.82,5.08v10.18l8.82,5.08,8.83-5.08V95.19l-8.83-5.08Z"/><path class="cls-4" d="M784.14,91.22l7.94,4.53v9.06l-7.94,4.53-7.94-4.53V95.75l7.94-4.53m0-1.11-8.82,5.08v10.18l8.82,5.08,8.82-5.08V95.19l-8.82-5.08Z"/><path class="cls-4" d="M800.9,91.22l8,4.53v9.06l-8,4.53L793,104.81V95.75l7.94-4.53m0-1.11-8.82,5.08v10.18l8.82,5.08,8.83-5.08V95.19l-8.83-5.08Z"/><path class="cls-4" d="M817.67,91.22l7.94,4.53v9.06l-7.94,4.53-7.94-4.53V95.75l7.94-4.53m0-1.11-8.82,5.08v10.18l8.82,5.08,8.82-5.08V95.19l-8.82-5.08Z"/><path class="cls-4" d="M834.43,91.22l8,4.53v9.06l-8,4.53-7.94-4.53V95.75l7.94-4.53m0-1.11-8.82,5.08v10.18l8.82,5.08,8.83-5.08V95.19l-8.83-5.08Z"/><path class="cls-4" d="M851.2,91.22l7.94,4.53v9.06l-7.94,4.53-7.94-4.53V95.75l7.94-4.53m0-1.11-8.82,5.08v10.18l8.82,5.08,8.82-5.08V95.19l-8.82-5.08Z"/><path class="cls-4" d="M868,91.22l7.95,4.53v9.06L868,109.34,860,104.81V95.75L868,91.22m0-1.11-8.82,5.08v10.18l8.82,5.08,8.83-5.08V95.19L868,90.11Z"/><path class="cls-4" d="M541,106.2l8,4.53v9.06l-8,4.54-7.94-4.54v-9.06L541,106.2m0-1.11-8.82,5.08v10.18l8.82,5.09,8.83-5.09V110.17L541,105.09Z"/><path class="cls-4" d="M557.81,106.2l7.94,4.53v9.06l-7.94,4.54-7.94-4.54v-9.06l7.94-4.53m0-1.11L549,110.17v10.18l8.82,5.09,8.82-5.09V110.17l-8.82-5.08Z"/><path class="cls-4" d="M574.57,106.2l7.95,4.53v9.06l-7.95,4.54-7.94-4.54v-9.06l7.94-4.53m0-1.11-8.82,5.08v10.18l8.82,5.09,8.83-5.09V110.17l-8.83-5.08Z"/><path class="cls-4" d="M591.34,106.2l7.94,4.53v9.06l-7.94,4.54-7.94-4.54v-9.06l7.94-4.53m0-1.11-8.82,5.08v10.18l8.82,5.09,8.82-5.09V110.17l-8.82-5.08Z"/><path class="cls-4" d="M608.1,106.2l7.95,4.53v9.06l-7.95,4.54-7.94-4.54v-9.06l7.94-4.53m0-1.11-8.82,5.08v10.18l8.82,5.09,8.83-5.09V110.17l-8.83-5.08Z"/><path class="cls-4" d="M624.87,106.2l7.94,4.53v9.06l-7.94,4.54-7.94-4.54v-9.06l7.94-4.53m0-1.11-8.82,5.08v10.18l8.82,5.09,8.82-5.09V110.17l-8.82-5.08Z"/><path class="cls-4" d="M641.63,106.2l8,4.53v9.06l-8,4.54-7.94-4.54v-9.06l7.94-4.53m0-1.11-8.82,5.08v10.18l8.82,5.09,8.83-5.09V110.17l-8.83-5.08Z"/><path class="cls-4" d="M658.4,106.2l7.94,4.53v9.06l-7.94,4.54-7.94-4.54v-9.06l7.94-4.53m0-1.11-8.82,5.08v10.18l8.82,5.09,8.82-5.09V110.17l-8.82-5.08Z"/><path class="cls-4" d="M675.17,106.2l7.94,4.53v9.06l-7.94,4.54-7.95-4.54v-9.06l7.95-4.53m0-1.11-8.83,5.08v10.18l8.83,5.09,8.82-5.09V110.17l-8.82-5.08Z"/><path class="cls-4" d="M691.93,106.2l7.94,4.53v9.06l-7.94,4.54L684,119.79v-9.06l7.94-4.53m0-1.11-8.82,5.08v10.18l8.82,5.09,8.82-5.09V110.17l-8.82-5.08Z"/><path class="cls-4" d="M708.7,106.2l7.94,4.53v9.06l-7.94,4.54-8-4.54v-9.06l8-4.53m0-1.11-8.83,5.08v10.18l8.83,5.09,8.82-5.09V110.17l-8.82-5.08Z"/><path class="cls-4" d="M725.46,106.2l7.94,4.53v9.06l-7.94,4.54-7.94-4.54v-9.06l7.94-4.53m0-1.11-8.82,5.08v10.18l8.82,5.09,8.82-5.09V110.17l-8.82-5.08Z"/><path class="cls-4" d="M742.23,106.2l7.94,4.53v9.06l-7.94,4.54-8-4.54v-9.06l8-4.53m0-1.11-8.83,5.08v10.18l8.83,5.09,8.82-5.09V110.17l-8.82-5.08Z"/><path class="cls-4" d="M759,106.2l7.94,4.53v9.06L759,124.33l-7.94-4.54v-9.06L759,106.2m0-1.11-8.82,5.08v10.18l8.82,5.09,8.82-5.09V110.17L759,105.09Z"/><path class="cls-4" d="M775.76,106.2l7.94,4.53v9.06l-7.94,4.54-8-4.54v-9.06l8-4.53m0-1.11-8.83,5.08v10.18l8.83,5.09,8.82-5.09V110.17l-8.82-5.08Z"/><path class="cls-4" d="M792.52,106.2l7.94,4.53v9.06l-7.94,4.54-7.94-4.54v-9.06l7.94-4.53m0-1.11-8.82,5.08v10.18l8.82,5.09,8.83-5.09V110.17l-8.83-5.08Z"/><path class="cls-4" d="M809.29,106.2l7.94,4.53v9.06l-7.94,4.54-7.94-4.54v-9.06l7.94-4.53m0-1.11-8.83,5.08v10.18l8.83,5.09,8.82-5.09V110.17l-8.82-5.08Z"/><path class="cls-4" d="M826.05,106.2l7.94,4.53v9.06l-7.94,4.54-7.94-4.54v-9.06l7.94-4.53m0-1.11-8.82,5.08v10.18l8.82,5.09,8.83-5.09V110.17l-8.83-5.08Z"/><path class="cls-4" d="M842.82,106.2l7.94,4.53v9.06l-7.94,4.54-7.94-4.54v-9.06l7.94-4.53m0-1.11L834,110.17v10.18l8.83,5.09,8.82-5.09V110.17l-8.82-5.08Z"/><path class="cls-4" d="M859.58,106.2l7.94,4.53v9.06l-7.94,4.54-7.94-4.54v-9.06l7.94-4.53m0-1.11-8.82,5.08v10.18l8.82,5.09,8.83-5.09V110.17l-8.83-5.08Z"/><path class="cls-4" d="M549.43,121l7.94,4.53v9.06l-7.94,4.53-7.95-4.53v-9.06l7.95-4.53m0-1-8.83,5.09v10.17l8.83,5.09,8.82-5.09V125.07L549.43,120Z"/><path class="cls-4" d="M566.19,121l7.94,4.53v9.06l-7.94,4.53-7.94-4.53v-9.06l7.94-4.53m0-1-8.82,5.09v10.17l8.82,5.09,8.83-5.09V125.07L566.19,120Z"/><path class="cls-4" d="M583,121l7.94,4.53v9.06L583,139.12,575,134.59v-9.06L583,121m0-1-8.83,5.09v10.17l8.83,5.09,8.82-5.09V125.07L583,120Z"/><path class="cls-4" d="M599.72,121l7.94,4.53v9.06l-7.94,4.53-7.94-4.53v-9.06l7.94-4.53m0-1-8.82,5.09v10.17l8.82,5.09,8.83-5.09V125.07L599.72,120Z"/><path class="cls-4" d="M616.49,121l7.94,4.53v9.06l-7.94,4.53-7.94-4.53v-9.06l7.94-4.53m0-1-8.83,5.09v10.17l8.83,5.09,8.82-5.09V125.07L616.49,120Z"/><path class="cls-4" d="M633.25,121l7.94,4.53v9.06l-7.94,4.53-7.94-4.53v-9.06l7.94-4.53m0-1-8.82,5.09v10.17l8.82,5.09,8.83-5.09V125.07L633.25,120Z"/><path class="cls-4" d="M650,121l7.94,4.53v9.06L650,139.12l-7.94-4.53v-9.06L650,121m0-1-8.83,5.09v10.17l8.83,5.09,8.82-5.09V125.07L650,120Z"/><path class="cls-4" d="M666.78,121l7.94,4.53v9.06l-7.94,4.53-7.94-4.53v-9.06l7.94-4.53m0-1L658,125.07v10.17l8.82,5.09,8.83-5.09V125.07L666.78,120Z"/><path class="cls-4" d="M683.55,121l7.94,4.53v9.06l-7.94,4.53-7.94-4.53v-9.06l7.94-4.53m0-1-8.83,5.09v10.17l8.83,5.09,8.82-5.09V125.07L683.55,120Z"/><path class="cls-4" d="M700.31,121l7.94,4.53v9.06l-7.94,4.53-7.94-4.53v-9.06l7.94-4.53m0-1-8.82,5.09v10.17l8.82,5.09,8.83-5.09V125.07L700.31,120Z"/><path class="cls-4" d="M717.08,121l7.94,4.53v9.06l-7.94,4.53-7.94-4.53v-9.06l7.94-4.53m0-1-8.83,5.09v10.17l8.83,5.09,8.82-5.09V125.07L717.08,120Z"/><path class="cls-4" d="M733.84,121l7.94,4.53v9.06l-7.94,4.53-7.94-4.53v-9.06l7.94-4.53m0-1L725,125.07v10.17l8.82,5.09,8.83-5.09V125.07L733.84,120Z"/><path class="cls-4" d="M750.61,121l7.94,4.53v9.06l-7.94,4.53-7.94-4.53v-9.06l7.94-4.53m0-1-8.83,5.09v10.17l8.83,5.09,8.82-5.09V125.07L750.61,120Z"/><path class="cls-4" d="M767.37,121l8,4.53v9.06l-8,4.53-7.94-4.53v-9.06l7.94-4.53m0-1-8.82,5.09v10.17l8.82,5.09,8.83-5.09V125.07L767.37,120Z"/><path class="cls-4" d="M784.14,121l7.94,4.53v9.06l-7.94,4.53-7.94-4.53v-9.06l7.94-4.53m0-1-8.82,5.09v10.17l8.82,5.09,8.82-5.09V125.07L784.14,120Z"/><path class="cls-4" d="M800.9,121l8,4.53v9.06l-8,4.53L793,134.59v-9.06L800.9,121m0-1-8.82,5.09v10.17l8.82,5.09,8.83-5.09V125.07L800.9,120Z"/><path class="cls-4" d="M817.67,121l7.94,4.53v9.06l-7.94,4.53-7.94-4.53v-9.06l7.94-4.53m0-1-8.82,5.09v10.17l8.82,5.09,8.82-5.09V125.07L817.67,120Z"/><path class="cls-4" d="M834.43,121l8,4.53v9.06l-8,4.53-7.94-4.53v-9.06l7.94-4.53m0-1-8.82,5.09v10.17l8.82,5.09,8.83-5.09V125.07L834.43,120Z"/><path class="cls-4" d="M851.2,121l7.94,4.53v9.06l-7.94,4.53-7.94-4.53v-9.06L851.2,121m0-1-8.82,5.09v10.17l8.82,5.09,8.82-5.09V125.07L851.2,120Z"/><path class="cls-4" d="M868,121l7.95,4.53v9.06L868,139.12,860,134.59v-9.06L868,121m0-1-8.82,5.09v10.17l8.82,5.09,8.83-5.09V125.07L868,120Z"/><path class="cls-4" d="M541,136l8,4.53v9.06l-8,4.54-7.94-4.54v-9L541,136m0-1-8.82,5.09v10.17l8.82,5.09,8.83-5.09V140.05L541,135Z"/><path class="cls-4" d="M557.81,136l7.94,4.53v9.06l-7.94,4.54-7.94-4.54v-9l7.94-4.62m0-1L549,140.05v10.17l8.82,5.09,8.82-5.09V140.05L557.81,135Z"/><path class="cls-4" d="M574.57,136l7.95,4.53v9.06l-7.95,4.54-7.94-4.54v-9l7.94-4.62m0-1-8.82,5.09v10.17l8.82,5.09,8.83-5.09V140.05L574.57,135Z"/><path class="cls-4" d="M591.34,136l7.94,4.53v9.06l-7.94,4.54-7.94-4.54v-9l7.94-4.62m0-1-8.82,5.09v10.17l8.82,5.09,8.82-5.09V140.05L591.34,135Z"/><path class="cls-4" d="M608.1,136l7.95,4.53v9.06l-7.95,4.54-7.94-4.54v-9L608.1,136m0-1-8.82,5.09v10.17l8.82,5.09,8.83-5.09V140.05L608.1,135Z"/><path class="cls-4" d="M624.87,136l7.94,4.53v9.06l-7.94,4.54-7.94-4.54v-9l7.94-4.62m0-1-8.82,5.09v10.17l8.82,5.09,8.82-5.09V140.05L624.87,135Z"/><path class="cls-4" d="M641.63,136l8,4.53v9.06l-8,4.54-7.94-4.54v-9l7.94-4.62m0-1-8.82,5.09v10.17l8.82,5.09,8.83-5.09V140.05L641.63,135Z"/><path class="cls-4" d="M658.4,136l7.94,4.53v9.06l-7.94,4.54-7.94-4.54v-9L658.4,136m0-1-8.82,5.09v10.17l8.82,5.09,8.82-5.09V140.05L658.4,135Z"/><path class="cls-4" d="M675.17,136l7.94,4.53v9.06l-7.94,4.54-7.95-4.54v-9l7.95-4.62m0-1-8.83,5.09v10.17l8.83,5.09,8.82-5.09V140.05L675.17,135Z"/><path class="cls-4" d="M691.93,136l7.94,4.53v9.06l-7.94,4.54L684,149.57v-9l7.94-4.62m0-1-8.82,5.09v10.17l8.82,5.09,8.82-5.09V140.05L691.93,135Z"/><path class="cls-4" d="M708.7,136l7.94,4.53v9.06l-7.94,4.54-8-4.54v-9l8-4.62m0-1-8.83,5.09v10.17l8.83,5.09,8.82-5.09V140.05L708.7,135Z"/><path class="cls-4" d="M725.46,136l7.94,4.53v9.06l-7.94,4.54-7.94-4.54v-9l7.94-4.62m0-1-8.82,5.09v10.17l8.82,5.09,8.82-5.09V140.05L725.46,135Z"/><path class="cls-4" d="M742.23,136l7.94,4.53v9.06l-7.94,4.54-8-4.54v-9l8-4.62m0-1-8.83,5.09v10.17l8.83,5.09,8.82-5.09V140.05L742.23,135Z"/><path class="cls-4" d="M759,136l7.94,4.53v9.06L759,154.11l-7.94-4.54v-9L759,136m0-1-8.82,5.09v10.17l8.82,5.09,8.82-5.09V140.05L759,135Z"/><path class="cls-4" d="M775.76,136l7.94,4.53v9.06l-7.94,4.54-8-4.54v-9l8-4.62m0-1-8.83,5.09v10.17l8.83,5.09,8.82-5.09V140.05L775.76,135Z"/><path class="cls-4" d="M792.52,136l7.94,4.53v9.06l-7.94,4.54-7.94-4.54v-9l7.94-4.62m0-1-8.82,5.09v10.17l8.82,5.09,8.83-5.09V140.05L792.52,135Z"/><path class="cls-4" d="M809.29,136l7.94,4.53v9.06l-7.94,4.54-7.94-4.54v-9l7.94-4.62m0-1-8.83,5.09v10.17l8.83,5.09,8.82-5.09V140.05L809.29,135Z"/><path class="cls-4" d="M826.05,136l7.94,4.53v9.06l-7.94,4.54-7.94-4.54v-9l7.94-4.62m0-1-8.82,5.09v10.17l8.82,5.09,8.83-5.09V140.05L826.05,135Z"/><path class="cls-4" d="M842.82,136l7.94,4.53v9.06l-7.94,4.54-7.94-4.54v-9l7.94-4.62m0-1L834,140.05v10.17l8.83,5.09,8.82-5.09V140.05L842.82,135Z"/><path class="cls-4" d="M859.58,136l7.94,4.53v9.06l-7.94,4.54-7.94-4.54v-9l7.94-4.62m0-1-8.82,5.09v10.17l8.82,5.09,8.83-5.09V140.05L859.58,135Z"/><path class="cls-4" d="M549.43,150.87l7.94,4.53v9.06L549.43,169l-7.95-4.54V155.4l7.95-4.53m0-1.11-8.83,5.09V165l8.83,5.09,8.82-5.09V154.85l-8.82-5.09Z"/><path class="cls-4" d="M566.19,150.87l7.94,4.53v9.06L566.19,169l-7.94-4.54V155.4l7.94-4.53m0-1.11-8.82,5.09V165l8.82,5.09L575,165V154.85l-8.83-5.09Z"/><path class="cls-4" d="M583,150.87l7.94,4.53v9.06L583,169,575,164.46V155.4l7.94-4.53m0-1.11-8.83,5.09V165l8.83,5.09,8.82-5.09V154.85L583,149.76Z"/><path class="cls-4" d="M599.72,150.87l7.94,4.53v9.06L599.72,169l-7.94-4.54V155.4l7.94-4.53m0-1.11-8.82,5.09V165l8.82,5.09,8.83-5.09V154.85l-8.83-5.09Z"/><path class="cls-4" d="M616.49,150.87l7.94,4.53v9.06L616.49,169l-7.94-4.54V155.4l7.94-4.53m0-1.11-8.83,5.09V165l8.83,5.09,8.82-5.09V154.85l-8.82-5.09Z"/><path class="cls-4" d="M633.25,150.87l7.94,4.53v9.06L633.25,169l-7.94-4.54V155.4l7.94-4.53m0-1.11-8.82,5.09V165l8.82,5.09,8.83-5.09V154.85l-8.83-5.09Z"/><path class="cls-4" d="M650,150.87,658,155.4v9.06L650,169l-7.94-4.54V155.4l7.94-4.53m0-1.11-8.83,5.09V165l8.83,5.09,8.82-5.09V154.85L650,149.76Z"/><path class="cls-4" d="M666.78,150.87l7.94,4.53v9.06L666.78,169l-7.94-4.54V155.4l7.94-4.53m0-1.11L658,154.85V165l8.82,5.09,8.83-5.09V154.85l-8.83-5.09Z"/><path class="cls-4" d="M683.55,150.87l7.94,4.53v9.06L683.55,169l-7.94-4.54V155.4l7.94-4.53m0-1.11-8.83,5.09V165l8.83,5.09,8.82-5.09V154.85l-8.82-5.09Z"/><path class="cls-4" d="M700.31,150.87l7.94,4.53v9.06L700.31,169l-7.94-4.54V155.4l7.94-4.53m0-1.11-8.82,5.09V165l8.82,5.09,8.83-5.09V154.85l-8.83-5.09Z"/><path class="cls-4" d="M717.08,150.87,725,155.4v9.06L717.08,169l-7.94-4.54V155.4l7.94-4.53m0-1.11-8.83,5.09V165l8.83,5.09L725.9,165V154.85l-8.82-5.09Z"/><path class="cls-4" d="M733.84,150.87l7.94,4.53v9.06L733.84,169l-7.94-4.54V155.4l7.94-4.53m0-1.11L725,154.85V165l8.82,5.09,8.83-5.09V154.85l-8.83-5.09Z"/><path class="cls-4" d="M750.61,150.87l7.94,4.53v9.06L750.61,169l-7.94-4.54V155.4l7.94-4.53m0-1.11-8.83,5.09V165l8.83,5.09,8.82-5.09V154.85l-8.82-5.09Z"/><path class="cls-4" d="M767.37,150.87l8,4.53v9.06l-8,4.54-7.94-4.54V155.4l7.94-4.53m0-1.11-8.82,5.09V165l8.82,5.09L776.2,165V154.85l-8.83-5.09Z"/><path class="cls-4" d="M784.14,150.87l7.94,4.53v9.06L784.14,169l-7.94-4.54V155.4l7.94-4.53m0-1.11-8.82,5.09V165l8.82,5.09L793,165V154.85l-8.82-5.09Z"/><path class="cls-4" d="M800.9,150.87l8,4.53v9.06l-8,4.54L793,164.46V155.4l7.94-4.53m0-1.11-8.82,5.09V165l8.82,5.09,8.83-5.09V154.85l-8.83-5.09Z"/><path class="cls-4" d="M817.67,150.87l7.94,4.53v9.06L817.67,169l-7.94-4.54V155.4l7.94-4.53m0-1.11-8.82,5.09V165l8.82,5.09,8.82-5.09V154.85l-8.82-5.09Z"/><path class="cls-4" d="M834.43,150.87l8,4.53v9.06l-8,4.54-7.94-4.54V155.4l7.94-4.53m0-1.11-8.82,5.09V165l8.82,5.09,8.83-5.09V154.85l-8.83-5.09Z"/><path class="cls-4" d="M851.2,150.87l7.94,4.53v9.06L851.2,169l-7.94-4.54V155.4l7.94-4.53m0-1.11-8.82,5.09V165l8.82,5.09L860,165V154.85l-8.82-5.09Z"/><path class="cls-4" d="M868,150.87l7.95,4.53v9.06L868,169,860,164.46V155.4l7.94-4.53m0-1.11-8.82,5.09V165l8.82,5.09,8.83-5.09V154.85L868,149.76Z"/><polygon class="cls-5" points="877.53 170.53 869.64 170.53 869.64 45.2 536.16 45.2 536.16 170.53 528.27 170.53 528.27 37.31 877.53 37.31 877.53 170.53"/><polygon class="cls-5" points="877.53 170.53 869.64 170.53 869.64 45.2 536.16 45.2 536.16 170.53 528.27 170.53 528.27 37.31 877.53 37.31 877.53 170.53"/><path class="cls-5" d="M1363.1,1453.05H33.86V165.55H1363.1Zm-1324.24-5H1358.1V170.55H38.86Z"/><polygon class="cls-5" points="996.26 326.78 400.7 326.78 400.7 168.05 405.7 168.05 405.7 321.78 991.26 321.78 991.26 168.05 996.26 168.05 996.26 326.78"/><polygon class="cls-5" points="1173.38 539.5 223.58 539.5 223.58 168.05 228.58 168.05 228.58 534.5 1168.38 534.5 1168.38 168.05 1173.38 168.05 1173.38 539.5"/><circle class="cls-5" cx="698.48" cy="1450.55" r="34.92"/><circle class="cls-5" cx="698.48" cy="405.38" r="13.49"/><path class="cls-5" d="M698.48,631.76a306.57,306.57,0,0,1-220.31-93l3.58-3.48c57.46,59,134.42,91.5,216.73,91.5s159.27-32.5,216.73-91.5l3.58,3.48a306.57,306.57,0,0,1-220.31,93Z"/><path class="cls-5" d="M698.48,1644.65c-107,0-194.1-87.07-194.1-194.1s87.07-194.1,194.1-194.1,194.1,87.07,194.1,194.1S805.51,1644.65,698.48,1644.65Zm0-383.2c-104.27,0-189.1,84.83-189.1,189.1s84.83,189.1,189.1,189.1,189.1-84.83,189.1-189.1S802.75,1261.45,698.48,1261.45Z"/><rect class="cls-5" x="33.86" y="1450.55" width="5" height="339.45"/><rect class="cls-5" x="1358.1" y="1450.55" width="5" height="339.45"/></svg>